<?xml version="1.0" standalone="no"?>
<!DOCTYPE svg PUBLIC "-//W3C//DTD SVG 20010904//EN"
 "http://www.w3.org/TR/2001/REC-SVG-20010904/DTD/svg10.dtd">
<svg version="1.0" xmlns="http://www.w3.org/2000/svg"
 width="1000.000000pt" height="500.000000pt" viewBox="0 0 1000.000000 500.000000"
 preserveAspectRatio="xMidYMid meet">

<g transform="translate(0.000000,500.000000) scale(0.100000,-0.100000)"
fill="#000000" stroke="none">
<path d="M3034 4791 c-23 -10 -44 -26 -47 -34 -3 -9 -23 -25 -44 -35 -57 -29
-353 -138 -653 -240 -395 -135 -722 -253 -810 -294 -25 -11 -85 -36 -135 -55
-49 -19 -94 -38 -100 -43 -5 -4 -57 -29 -115 -56 -58 -27 -150 -77 -205 -111
-55 -35 -105 -63 -111 -63 -6 0 -18 -7 -25 -17 -8 -9 -38 -32 -68 -51 -70 -44
-268 -242 -316 -316 -21 -31 -41 -56 -46 -56 -4 0 -11 -10 -15 -22 -3 -13 -22
-46 -40 -74 -19 -28 -34 -56 -34 -61 0 -6 -13 -30 -30 -54 -16 -24 -30 -50
-30 -58 0 -8 -9 -33 -19 -55 -54 -115 -102 -307 -116 -466 -6 -57 -6 -314 -1
-360 18 -151 52 -281 120 -455 14 -38 58 -120 101 -194 35 -59 148 -189 196
-226 92 -70 131 -97 183 -124 32 -17 63 -31 68 -31 5 0 24 -6 41 -14 127 -57
387 -55 575 3 17 5 32 8 32 5 0 -2 17 5 37 16 21 11 44 20 51 20 7 0 30 11 50
25 20 14 42 25 48 25 6 0 28 13 50 30 21 16 43 30 48 30 8 0 54 35 99 75 13
11 37 32 54 46 68 57 211 239 251 319 6 14 29 57 51 96 21 39 41 84 45 99 4
16 22 63 40 104 37 85 69 203 98 366 26 142 27 148 28 290 3 224 -33 500 -105
809 -9 38 -15 86 -14 107 3 42 -14 69 -44 69 -22 0 -22 1 7 -195 66 -443 40
-964 -68 -1345 -84 -295 -294 -618 -485 -744 -184 -121 -364 -180 -556 -180
-440 0 -786 354 -880 899 -20 118 -20 362 0 499 27 184 100 395 184 535 129
215 385 450 693 634 322 193 966 476 1553 681 263 92 394 147 443 184 57 43
64 53 50 69 -14 18 -35 16 -84 -6z"/>
<path d="M4352 3381 c-30 -67 -144 -158 -289 -230 -129 -64 -303 -111 -303
-82 0 5 -8 12 -17 15 -10 4 -29 13 -43 20 -34 19 -108 28 -131 15 -37 -19 -50
-52 -38 -90 20 -59 63 -79 167 -81 37 0 43 -4 49 -26 21 -84 -70 -222 -191
-288 -41 -23 -64 -29 -118 -29 -59 0 -71 3 -93 25 l-25 26 19 40 c31 63 35 89
16 108 -9 9 -23 16 -32 16 -28 0 -78 -64 -93 -118 -11 -43 -26 -64 -80 -116
-194 -187 -387 -230 -454 -100 -27 52 -33 159 -12 246 27 116 102 263 129 252
19 -7 49 31 45 57 -5 36 -29 44 -73 24 -21 -10 -40 -27 -43 -37 -2 -10 -9 -18
-16 -18 -18 -1 -80 -108 -124 -215 -56 -136 -81 -308 -58 -400 7 -24 15 -47
19 -51 4 -4 7 -14 7 -22 0 -22 66 -82 89 -82 11 0 22 -4 25 -8 6 -10 96 -9
112 0 5 3 23 9 39 12 81 17 213 105 315 209 75 75 90 87 90 68 0 -19 47 -61
68 -61 11 0 23 -4 26 -8 4 -8 63 -2 146 14 19 3 42 12 50 19 8 7 26 16 40 20
14 4 38 18 53 31 16 13 32 24 37 24 12 0 150 142 150 154 0 5 6 17 13 25 33
40 44 111 34 210 -2 21 5 28 48 45 28 11 91 39 140 63 50 24 94 43 99 43 4 0
-3 -14 -16 -31 -43 -59 -89 -124 -135 -194 -25 -38 -53 -81 -62 -95 -10 -14
-36 -62 -59 -107 -39 -77 -45 -113 -18 -113 13 0 99 64 296 221 152 121 371
288 430 329 l35 25 -19 -30 c-10 -17 -26 -39 -35 -50 -18 -21 -64 -87 -93
-133 -28 -44 -48 -93 -48 -118 0 -26 32 -48 58 -40 9 3 19 5 22 4 3 -2 21 7
40 18 19 12 46 25 60 29 14 4 36 15 50 25 14 9 45 28 70 41 25 14 80 48 122
77 42 28 79 52 82 52 3 0 33 20 68 44 35 24 76 52 93 62 l29 19 -22 -32 c-12
-18 -31 -46 -42 -63 -11 -16 -20 -35 -20 -43 0 -7 -7 -22 -15 -33 -31 -41 -9
-97 48 -125 33 -15 55 -18 129 -14 49 2 96 9 106 13 9 5 42 15 72 22 30 7 98
26 150 42 86 28 118 40 245 98 22 10 58 21 80 25 22 3 76 17 120 29 62 19 80
28 80 42 0 22 84 51 96 33 9 -14 29 -3 29 17 0 8 -1 14 -3 14 -1 0 -52 -11
-112 -25 -60 -13 -110 -23 -112 -22 -1 2 4 15 12 31 20 39 0 72 -50 82 -5 1
-13 3 -17 4 -18 4 -85 2 -113 -4 -63 -14 -111 -30 -125 -42 -8 -6 -25 -15 -37
-18 -13 -4 -23 -14 -23 -22 0 -8 -4 -14 -10 -14 -15 0 -32 -39 -25 -60 4 -11
13 -27 22 -35 8 -9 13 -18 10 -21 -13 -13 -189 -66 -261 -79 -90 -15 -152 -8
-172 20 -31 42 52 180 198 331 73 75 86 93 74 103 -11 9 -37 -4 -127 -68 -329
-229 -652 -400 -699 -371 -19 12 41 130 115 229 30 41 55 80 55 87 0 29 -25
23 -91 -23 -39 -26 -81 -55 -93 -63 -12 -8 -48 -35 -80 -60 -32 -25 -73 -56
-91 -70 -19 -14 -94 -73 -168 -131 -155 -123 -255 -194 -264 -186 -16 16 238
396 338 505 66 72 102 148 78 163 -23 15 -34 10 -47 -20z m1415 -266 c-29 -26
-93 -37 -69 -12 13 12 68 35 87 36 6 0 -3 -11 -18 -24z"/>
<path d="M6435 2669 c-242 -27 -325 -61 -325 -136 0 -31 7 -42 57 -83 24 -21
168 -70 203 -70 22 0 8 30 -20 47 -31 18 -45 46 -38 79 9 50 164 81 315 64
176 -20 362 -80 406 -132 70 -83 -79 -243 -515 -552 l-68 -48 0 54 c0 29 5 70
10 90 14 49 -3 118 -28 118 -16 0 -19 -18 -30 -147 -7 -81 -16 -151 -19 -156
-5 -9 -587 -396 -704 -469 -170 -106 -421 -291 -584 -430 -79 -68 -265 -275
-265 -296 0 -5 -13 -28 -30 -50 -16 -23 -30 -47 -30 -54 0 -7 -9 -28 -20 -45
-26 -43 -36 -149 -21 -205 22 -79 81 -123 211 -161 218 -63 457 -57 683 16 42
14 79 25 80 24 3 -2 70 26 127 52 58 27 92 53 145 110 27 30 61 66 75 80 14
14 30 37 37 51 6 14 25 45 43 68 39 55 119 212 160 317 35 89 88 286 95 355 3
25 10 70 15 100 12 62 28 227 38 375 l7 100 80 53 c44 29 89 58 101 65 37 21
228 148 254 168 14 10 55 41 93 68 140 101 217 192 217 256 0 85 -69 174 -184
236 -48 26 -65 33 -96 41 -172 45 -341 61 -475 47z m-240 -169 c-3 -5 -11 -10
-16 -10 -6 0 -7 5 -4 10 3 6 11 10 16 10 6 0 7 -4 4 -10z m45 -2 c0 -19 -18
-43 -25 -36 -4 3 -2 16 5 27 12 24 20 27 20 9z m49 -63 c0 -5 -6 -1 -14 9 -8
11 -15 27 -15 35 1 17 29 -26 29 -44z m77 -777 c-3 -13 -13 -61 -21 -108 -40
-209 -117 -478 -187 -655 -105 -265 -304 -539 -463 -634 -75 -46 -201 -89
-293 -102 -78 -11 -283 1 -354 21 -56 16 -123 87 -142 151 -35 116 9 193 241
420 167 163 324 295 581 486 192 144 620 442 635 443 4 0 5 -10 3 -22z m-69
-730 c-3 -8 -6 -5 -6 6 -1 11 2 17 5 13 3 -3 4 -12 1 -19z m-74 -193 c-3 -9
-8 -14 -10 -11 -3 3 -2 9 2 15 9 16 15 13 8 -4z"/>
<path d="M9624 2532 c-131 -130 -513 -527 -615 -637 -160 -176 -209 -256 -176
-283 11 -10 23 -8 54 10 39 22 46 23 187 16 315 -15 661 -68 814 -125 38 -14
45 -14 53 -2 14 22 12 24 -38 41 -27 9 -106 37 -178 63 -161 59 -185 63 -367
75 -144 8 -197 21 -206 48 -7 24 98 114 253 217 82 55 161 110 175 123 14 12
28 22 32 22 4 0 23 14 43 31 35 31 44 53 25 64 -10 6 -115 -46 -167 -82 -15
-11 -33 -22 -38 -24 -6 -2 -96 -63 -200 -135 -105 -72 -208 -141 -229 -154
l-39 -24 17 30 c45 76 476 548 607 664 52 47 74 60 89 55 13 -4 20 -2 20 7 0
8 9 31 20 53 15 29 17 42 9 52 -6 7 -15 13 -19 13 -4 0 -61 -53 -126 -118z"/>
<path d="M5160 2594 c-244 -35 -328 -51 -500 -94 -126 -31 -331 -89 -425 -120
-33 -11 -82 -26 -110 -34 -27 -8 -115 -39 -195 -69 -111 -42 -145 -59 -145
-72 0 -28 30 -42 49 -22 40 40 705 226 1044 291 129 25 259 35 281 21 22 -13
10 -37 -51 -96 -176 -173 -588 -435 -828 -526 -68 -25 -84 -36 -82 -50 5 -25
6 -25 48 -14 152 40 728 50 968 17 233 -32 351 -75 377 -137 8 -22 7 -34 -10
-66 -39 -78 -128 -139 -363 -253 -427 -205 -1042 -400 -1784 -564 -142 -32
-437 -86 -466 -86 -6 0 50 62 124 138 416 426 605 657 931 1137 60 89 137 213
137 222 0 10 -30 28 -35 21 -167 -265 -744 -974 -1152 -1415 l-95 -103 -76 0
c-42 0 -94 5 -115 11 -34 9 -38 13 -33 34 9 36 -14 36 -59 -1 -97 -82 -119
-115 -91 -143 14 -13 37 -16 144 -13 l127 3 -40 -42 c-22 -22 -50 -45 -63 -50
-12 -5 -25 -17 -29 -26 -4 -10 -12 -21 -19 -26 -7 -4 -19 -20 -27 -37 -13 -25
-13 -31 -1 -41 11 -9 38 12 142 113 l127 124 120 13 c186 19 703 111 830 147
28 7 100 25 160 39 61 14 146 36 190 50 44 13 125 36 180 51 55 14 109 30 120
35 11 5 99 36 195 68 209 70 421 158 625 259 143 71 176 89 276 157 50 34 149
129 149 143 0 5 7 15 15 22 9 7 14 19 11 26 -3 7 -1 16 3 19 11 6 -9 86 -26
103 -7 7 -13 20 -13 28 0 8 -4 14 -10 14 -5 0 -18 8 -28 18 -24 24 -69 52 -83
52 -6 0 -25 6 -42 14 -34 15 -44 17 -207 41 -184 27 -592 17 -810 -20 -28 -5
-19 2 40 32 41 21 89 47 105 58 105 66 151 96 160 103 6 4 26 18 45 32 126 88
401 319 458 386 35 41 37 46 22 75 -13 23 -47 23 -190 3z m-2530 -1862 c0 -5
10 -14 23 -20 20 -10 18 -11 -19 -11 -48 -1 -60 7 -36 25 20 16 32 18 32 6z"/>
<path d="M8820 2093 c-113 -60 -114 -61 -200 -119 -106 -71 -132 -90 -244
-173 -109 -81 -164 -116 -172 -109 -2 3 30 59 72 124 129 199 174 276 168 285
-13 21 -41 6 -63 -34 -13 -23 -90 -140 -170 -260 -213 -319 -196 -290 -187
-312 8 -23 21 -19 78 28 214 172 677 502 743 528 33 13 85 56 83 68 -5 25 -21
21 -108 -26z"/>
<path d="M7175 1945 c-5 -2 -56 -9 -112 -15 -89 -11 -103 -15 -103 -31 0 -16
10 -19 97 -21 l97 -3 -39 -20 c-21 -11 -46 -27 -56 -35 -9 -8 -42 -35 -73 -60
-31 -25 -56 -50 -56 -56 0 -6 -9 -19 -21 -30 -27 -24 -50 -79 -55 -130 -8 -79
55 -118 186 -117 36 1 88 6 115 11 58 12 221 59 250 72 49 23 127 50 142 50 9
0 24 6 32 14 9 7 42 27 73 44 32 17 69 40 84 51 14 11 33 23 42 25 17 6 35 39
45 84 16 67 -56 127 -183 152 -70 14 -438 26 -465 15z m405 -45 c13 -9 13 -10
0 -9 -8 1 -26 5 -40 9 l-25 8 25 1 c14 0 32 -4 40 -9z m-86 -46 c71 -14 113
-34 123 -60 7 -19 -26 -55 -102 -109 -131 -93 -282 -147 -417 -149 -69 -1 -91
3 -104 15 -15 15 -14 20 4 62 34 76 141 178 217 207 24 9 25 8 15 -10 -9 -16
-7 -22 5 -26 19 -8 74 51 75 79 0 15 7 16 58 11 31 -3 88 -12 126 -20z"/>
</g>
</svg>
